<svg xmlns="http://www.w3.org/2000/svg" xmlns:xlink="http://www.w3.org/1999/xlink" width="843.1" height="736.3" version="1.0">
  <path fill="none" stroke="#000" stroke-linecap="round" stroke-linejoin="round" stroke-width="2.2" d="M342 284v-64 64zM342 284H188h154zM342 284H188h154zM342 284H188h154z"/>
  <path fill="#A0F2AF" fill-rule="evenodd" stroke="#000" stroke-linecap="round" stroke-linejoin="round" d="M188 220h156v65H188z"/>
  <path fill="url(#e)" fill-rule="evenodd" d="M342 284v-64H188v64h154zm-154 0v-64 64zm154 0v-64 64z"/>
  <path fill="#A0F2AF" fill-rule="evenodd" stroke="#000" stroke-linecap="round" stroke-linejoin="round" d="M188 220h156v65H188z"/>
  <path fill="none" stroke="#000" stroke-linecap="round" stroke-linejoin="round" stroke-width="2.2" d="M342 284v-64H188v64h154zM188 284v-64 64M342 284v-64 64"/>
  <text style="line-height:125%;text-align:start" font-family="Arial" font-size="17.3" font-stretch="Normal" font-weight="400" letter-spacing="0" transform="translate(209 257)" word-spacing="0">
    <tspan x="0" y="0"><tspan dx="0" dy="0">ScriptRuntime</tspan></tspan>
  </text>
  <path fill="none" stroke="#000" stroke-linecap="round" stroke-linejoin="round" stroke-width="2.2" d="M655 732v-64 64zM655 732H502h153zM655 732H502h153zM655 732H502h153z"/>
  <path fill="#8DA6F4" fill-rule="evenodd" stroke="#000" stroke-linecap="round" stroke-linejoin="round" d="M501 668h156v65H501z"/>
  <path fill="url(#f)" fill-rule="evenodd" d="M655 732v-64H502v64h153zm-153 0v-64 64zm153 0v-64 64z"/>
  <path fill="#8DA6F4" fill-rule="evenodd" stroke="#000" stroke-linecap="round" stroke-linejoin="round" d="M501 668h156v65H501z"/>
  <path fill="none" stroke="#000" stroke-linecap="round" stroke-linejoin="round" stroke-width="2.2" d="M655 732v-64H502v64h153zM502 732v-64 64M655 732v-64 64"/>
  <text style="line-height:125%;text-align:start" font-family="Arial" font-size="17.3" font-stretch="Normal" font-weight="400" letter-spacing="0" transform="translate(528 705)" word-spacing="0">
    <tspan x="0" y="0"><tspan dx="0" dy="0">ScriptSource</tspan></tspan>
  </text>
  <path fill="none" stroke="#000" stroke-linecap="round" stroke-linejoin="round" stroke-width="2.2" d="M393 732v-64 64zM393 732H240h153zM393 732H240h153zM393 732H240h153z"/>
  <path fill="#8DA6F4" fill-rule="evenodd" stroke="#000" stroke-linecap="round" stroke-linejoin="round" d="M239 668h155v65H239z"/>
  <path fill="url(#e)" fill-rule="evenodd" d="M393 732v-64H240v64h153zm-153 0v-64 64zm153 0v-64 64z"/>
  <path fill="#8DA6F4" fill-rule="evenodd" stroke="#000" stroke-linecap="round" stroke-linejoin="round" d="M239 668h155v65H239z"/>
  <path fill="none" stroke="#000" stroke-linecap="round" stroke-linejoin="round" stroke-width="2.2" d="M393 732v-64H240v64h153zM240 732v-64 64M393 732v-64 64"/>
  <text style="line-height:125%;text-align:start" font-family="Arial" font-size="17.3" font-stretch="Normal" font-weight="400" letter-spacing="0" transform="translate(257 705)" word-spacing="0">
    <tspan x="0" y="0"><tspan dx="0" dy="0">CompiledCode</tspan></tspan>
  </text>
  <path fill="none" stroke="#000" stroke-linecap="round" stroke-linejoin="round" stroke-width="1.2" d="M265 92v128M259 203l6 17 6-17"/>
  <path fill="#fff" fill-rule="evenodd" d="M192 147v17h146v-17H192z"/>
  <text style="line-height:125%;text-align:start" font-family="Arial" font-size="14.7" font-stretch="Normal" font-weight="400" letter-spacing="0" transform="translate(192 160)" word-spacing="0">
    <tspan x="0" y="0"><tspan dx="0" dy="0">ScriptRuntime</tspan><tspan dx="0" dy="0">.</tspan><tspan dx="0" dy="0">Create</tspan><tspan dx="0" dy="0">()</tspan></tspan>
  </text>
  <path fill="none" stroke="#000" stroke-linecap="round" stroke-linejoin="round" stroke-width="2.2" d="M534 514v-64 64zM534 514H380h154zM534 514H380h154zM534 514H380h154z"/>
  <path fill="#8DA6F4" fill-rule="evenodd" stroke="#000" stroke-linecap="round" stroke-linejoin="round" d="M380 449h156v65H380z"/>
  <path fill="url(#f)" fill-rule="evenodd" d="M534 514v-64H380v64h154zm-154 0v-64 64zm154 0v-64 64z"/>
  <path fill="#8DA6F4" fill-rule="evenodd" stroke="#000" stroke-linecap="round" stroke-linejoin="round" d="M380 449h156v65H380z"/>
  <path fill="none" stroke="#000" stroke-linecap="round" stroke-linejoin="round" stroke-width="2.2" d="M534 514v-64H380v64h154zM380 514v-64 64M534 514v-64 64"/>
  <text style="line-height:125%;text-align:start" font-family="Arial" font-size="17.3" font-stretch="Normal" font-weight="400" letter-spacing="0" transform="translate(406 488)" word-spacing="0">
    <tspan x="0" y="0"><tspan dx="0" dy="0">ScriptEngine</tspan></tspan>
  </text>
  <path fill="none" stroke="#000" stroke-linecap="round" stroke-linejoin="round" stroke-width="2.2" d="M156 514v-64 64zM156 514H3h153zM156 514H3h153zM156 514H3h153z"/>
  <path fill="#A0F2AF" fill-rule="evenodd" stroke="#000" stroke-linecap="round" stroke-linejoin="round" d="M3 449h156v65H3z"/>
  <path fill="url(#e)" fill-rule="evenodd" d="M156 514v-64H3v64h153zM3 514v-64 64zm153 0v-64 64z"/>
  <path fill="#A0F2AF" fill-rule="evenodd" stroke="#000" stroke-linecap="round" stroke-linejoin="round" d="M3 449h156v65H3z"/>
  <path fill="none" stroke="#000" stroke-linecap="round" stroke-linejoin="round" stroke-width="2.2" d="M156 514v-64H3v64h153zM3 514v-64 64M156 514v-64 64"/>
  <text style="line-height:125%;text-align:start" font-family="Arial" font-size="17.3" font-stretch="Normal" font-weight="400" letter-spacing="0" transform="translate(32 488)" word-spacing="0">
    <tspan x="0" y="0"><tspan dx="0" dy="0">ScriptScope</tspan></tspan>
  </text>
  <path fill="none" stroke="#000" stroke-linecap="round" stroke-linejoin="round" stroke-width="1.2" d="M227 284L80 450M87 433l-7 17 15-9"/>
  <path fill="#fff" fill-rule="evenodd" d="M101 333v68h104v-68H101z"/>
  <text x="52" font-family="Arial" font-size="14.7" font-stretch="Normal" font-weight="400" letter-spacing="0" text-anchor="middle" transform="translate(101 345)" word-spacing="0" style="line-height:117.942704%;text-align:center">
    <tspan x="52" y="0"><tspan dx="0" dy="0">ExcuteFile</tspan><tspan dx="0" dy="0">(</tspan><tspan dx="0" dy="0">path</tspan><tspan dx="0" dy="0">)</tspan></tspan><tspan x="52" y="17"><tspan dx="0" dy="0">UseFile</tspan><tspan dx="0" dy="0">(</tspan><tspan dx="0" dy="0">path</tspan><tspan dx="0" dy="0">)</tspan></tspan>
  </text>
  <text x="52" y="35" font-family="Arial" font-size="14.7" font-stretch="Normal" font-weight="400" letter-spacing="0" text-anchor="middle" transform="translate(101 345)" word-spacing="0" style="line-height:117.942704%;text-align:center">
    <tspan x="52" y="35"><tspan dx="0" dy="0">CreateScope</tspan><tspan dx="0" dy="0">*()</tspan></tspan><tspan x="53" y="52"><tspan dx="0" dy="0">Globals</tspan></tspan>
  </text>
  <path fill="none" stroke="#000" stroke-linecap="round" stroke-linejoin="round" stroke-width="1.2" d="M495 514l83 154M565 655l13 13-3-18"/>
  <path fill="#fff" fill-rule="evenodd" d="M428 565v51h218v-51H428z"/>
  <text style="line-height:125%;text-align:start" font-family="Arial" font-size="14.7" font-stretch="Normal" font-weight="400" letter-spacing="0" transform="translate(432 578)" word-spacing="0">
    <tspan x="0" y="0"><tspan dx="0" dy="0">CreateScriptSourceFromString</tspan></tspan>
  </text>
  <text x="195" font-family="Arial" font-size="14.7" font-stretch="Normal" font-weight="400" letter-spacing="0" transform="translate(432 578)" word-spacing="0" style="line-height:125%;text-align:start">
    <tspan x="195" y="0"><tspan dx="0" dy="0">*()</tspan></tspan>
  </text>
  <text x="8" y="17" font-family="Arial" font-size="14.7" font-stretch="Normal" font-weight="400" letter-spacing="0" transform="translate(432 578)" word-spacing="0" style="line-height:125%;text-align:start">
    <tspan x="8" y="17"><tspan dx="0" dy="0">CreateScriptSourceFromFile</tspan></tspan>
  </text>
  <text x="203" y="17" font-family="Arial" font-size="14.7" font-stretch="Normal" font-weight="400" letter-spacing="0" text-anchor="end" transform="translate(432 578)" word-spacing="0" style="line-height:108.870188%;text-align:end">
    <tspan x="203" y="17"><tspan dx="0" dy="0">*()</tspan></tspan><tspan x="206" y="33"><tspan dx="0" dy="0">CreateScriptSrouceFromStream</tspan></tspan>
  </text>
  <text x="199" y="33" font-family="Arial" font-size="14.7" font-stretch="Normal" font-weight="400" letter-spacing="0" transform="translate(432 578)" word-spacing="0" style="line-height:125%;text-align:start">
    <tspan x="199" y="33"><tspan dx="0" dy="0">*()</tspan></tspan>
  </text>
  <path fill="none" stroke="#000" stroke-linecap="round" stroke-linejoin="round" stroke-width="1.2" d="M534 482h179v45"/>
  <path fill="none" stroke="#000" stroke-linecap="round" stroke-linejoin="round" stroke-width="1.2" d="M707 510l6 17 6-17"/>
  <path fill="#fff" fill-rule="evenodd" d="M590 446v34h163v-34H590z"/>
  <text x="36" font-family="Arial" font-size="14.7" font-stretch="Normal" font-weight="400" letter-spacing="0" text-anchor="middle" transform="translate(637 458)" word-spacing="0" style="line-height:117.942704%;text-align:center">
    <tspan x="36" y="0"><tspan dx="0" dy="0">Operations</tspan></tspan><tspan x="35" y="17"><tspan dx="0" dy="0">CreateObjectOperations</tspan><tspan dx="0" dy="0">()</tspan></tspan>
  </text>
  <path fill="none" stroke="#000" stroke-linecap="round" stroke-linejoin="round" stroke-width="1.2" d="M303 284l154 166M441 441l16 9-8-16"/>
  <path fill="#fff" fill-rule="evenodd" d="M289 350v34h182v-34H289z"/>
  <text x="59" font-family="Arial" font-size="14.7" font-stretch="Normal" font-weight="400" letter-spacing="0" text-anchor="middle" transform="translate(321 362)" word-spacing="0" style="line-height:117.942704%;text-align:center">
    <tspan x="59" y="0"><tspan dx="0" dy="0">GetEngine</tspan><tspan dx="0" dy="0">(</tspan><tspan dx="0" dy="0">langID</tspan><tspan dx="0" dy="0">)</tspan></tspan><tspan x="59" y="17"><tspan dx="0" dy="0">GetEngineByFileName</tspan><tspan dx="0" dy="0">(</tspan><tspan dx="0" dy="0">path</tspan><tspan dx="0" dy="0">)</tspan></tspan>
  </text>
  <path fill="none" stroke="#000" stroke-linecap="round" stroke-linejoin="round" stroke-width=".4" d="M839 322V2v320zM839 322H423h416zM839 322H423h416z"/>
  <path fill="#E9E9FF" fill-rule="evenodd" stroke="#000" stroke-linecap="round" stroke-linejoin="round" d="M422 53h416v269H422z"/>
  <path fill="url(#g)" fill-rule="evenodd" d="M423 54h416v268H423z"/>
  <path fill="#E9E9FF" fill-rule="evenodd" stroke="#000" stroke-linecap="round" stroke-linejoin="round" d="M422 53h416v269H422z"/>
  <path fill="none" stroke="#000" stroke-linecap="round" stroke-linejoin="round" stroke-width=".4" d="M839 322V54H423v268h416z"/>
  <path fill="#E9E9FF" fill-rule="evenodd" stroke="#000" stroke-linecap="round" stroke-linejoin="round" d="M422 1h417v321H422z"/>
  <path fill="url(#h)" fill-rule="evenodd" d="M839 54V2H423v52h416zM423 322V2v320zm416 0V2v320z"/>
  <path fill="#E9E9FF" fill-rule="evenodd" stroke="#000" stroke-linecap="round" stroke-linejoin="round" d="M422 1h417v321H422z"/>
  <path fill="none" stroke="#000" stroke-linecap="round" stroke-linejoin="round" stroke-width=".4" d="M839 54V2H423v52h416zM423 322V2v320M839 322V2v320"/>
  <text style="line-height:125%;text-align:start" font-family="Arial" font-size="17.3" font-stretch="Normal" font-weight="700" letter-spacing="0" transform="translate(505 33)" word-spacing="0">
    <tspan x="0" y="0"><tspan dx="0" dy="0">DLR Hosting</tspan><tspan dx="0" dy="0">: </tspan><tspan dx="0" dy="0">Executing Code</tspan></tspan>
  </text>
  <text style="line-height:123.150393%;text-align:start" font-family="Arial" font-size="17.3" font-stretch="Normal" font-weight="400" letter-spacing="0" transform="translate(430 99)" word-spacing="0">
    <tspan x="0" y="0"><tspan dx="0" dy="0">ScriptRuntime</tspan><tspan dx="0" dy="0">.</tspan><tspan dx="0" dy="0">ExecuteFile</tspan><tspan dx="0" dy="0">(</tspan><tspan dx="0" dy="0">path</tspan><tspan dx="0" dy="0">)</tspan></tspan><tspan x="0" y="21"><tspan dx="0" dy="0">ScriptRuntime</tspan><tspan dx="0" dy="0">.</tspan><tspan dx="0" dy="0">UseFile</tspan><tspan dx="0" dy="0">(</tspan><tspan dx="0" dy="0">path</tspan><tspan dx="0" dy="0">)</tspan></tspan>
  </text>
  <text y="64" font-family="Arial" font-size="17.3" font-stretch="Normal" font-weight="400" letter-spacing="0" transform="translate(430 99)" word-spacing="0" style="line-height:123.150393%;text-align:start">
    <tspan x="0" y="64"><tspan dx="0" dy="0">ScriptScope</tspan><tspan dx="0" dy="0">.</tspan><tspan dx="0" dy="0">Execute</tspan><tspan dx="0" dy="0">(</tspan><tspan dx="0" dy="0">text</tspan><tspan dx="0" dy="0">)</tspan></tspan><tspan x="0" y="85"><tspan dx="0" dy="0">ScriptScope</tspan><tspan dx="0" dy="0">.</tspan><tspan dx="0" dy="0">IncludeFile</tspan><tspan dx="0" dy="0">(</tspan><tspan dx="0" dy="0">path</tspan><tspan dx="0" dy="0">)</tspan></tspan>
  </text>
  <text y="128" font-family="Arial" font-size="17.3" font-stretch="Normal" font-weight="400" letter-spacing="0" transform="translate(430 99)" word-spacing="0" style="line-height:123.150393%;text-align:start">
    <tspan x="0" y="128"><tspan dx="0" dy="0">ScriptSource</tspan><tspan dx="0" dy="0">.</tspan><tspan dx="0" dy="0">Execute</tspan><tspan dx="0" dy="0">()</tspan></tspan><tspan x="0" y="149"><tspan dx="0" dy="0">ScriptSource</tspan><tspan dx="0" dy="0">.</tspan><tspan dx="0" dy="0">Execute</tspan><tspan dx="0" dy="0">(</tspan><tspan dx="0" dy="0">ScriptScope</tspan><tspan dx="0" dy="0">)</tspan></tspan>
  </text>
  <text y="192" font-family="Arial" font-size="17.3" font-stretch="Normal" font-weight="400" letter-spacing="0" transform="translate(430 99)" word-spacing="0" style="line-height:123.150393%;text-align:start">
    <tspan x="0" y="192"><tspan dx="0" dy="0">CompiledCode</tspan><tspan dx="0" dy="0">.</tspan><tspan dx="0" dy="0">Execute</tspan><tspan dx="0" dy="0">()</tspan></tspan><tspan x="0" y="213"><tspan dx="0" dy="0">CompiledCode</tspan><tspan dx="0" dy="0">.</tspan><tspan dx="0" dy="0">Execute</tspan><tspan dx="0" dy="0">(</tspan><tspan dx="0" dy="0">ScriptScope</tspan><tspan dx="0" dy="0">)</tspan></tspan>
  </text>
  <path fill="none" stroke="#000" stroke-linecap="round" stroke-linejoin="round" stroke-width="1.2" d="M502 700H393M410 694l-17 6 17 5"/>
  <path fill="#fff" fill-rule="evenodd" d="M417 691v17h61v-17h-61z"/>
  <text style="line-height:125%;text-align:start" font-family="Arial" font-size="14.7" font-stretch="Normal" font-weight="400" letter-spacing="0" transform="translate(417 704)" word-spacing="0">
    <tspan x="0" y="0"><tspan dx="0" dy="0">Compile</tspan><tspan dx="0" dy="0">()</tspan></tspan>
  </text>
  <path fill="none" stroke="#000" stroke-linecap="round" stroke-linejoin="round" stroke-width="2.2" d="M837 591v-64 64zM837 591H671h166zM837 591H671h166zM837 591H671h166z"/>
  <path fill="#8DA6F4" fill-rule="evenodd" stroke="#000" stroke-linecap="round" stroke-linejoin="round" d="M670 526h168v66H670z"/>
  <path fill="url(#e)" fill-rule="evenodd" d="M837 591v-64H671v64h166zm-166 0v-64 64zm166 0v-64 64z"/>
  <path fill="#8DA6F4" fill-rule="evenodd" stroke="#000" stroke-linecap="round" stroke-linejoin="round" d="M670 526h168v66H670z"/>
  <path fill="none" stroke="#000" stroke-linecap="round" stroke-linejoin="round" stroke-width="2.2" d="M837 591v-64H671v64h166zM671 591v-64 64M837 591v-64 64"/>
  <text style="line-height:125%;text-align:start" font-family="Arial" font-size="17.3" font-stretch="Normal" font-weight="400" letter-spacing="0" transform="translate(685 564)" word-spacing="0">
    <tspan x="0" y="0"><tspan dx="0" dy="0">ObjectOperations</tspan></tspan>
  </text>
  <path fill="none" stroke="#000" stroke-linecap="round" stroke-linejoin="round" stroke-width="1.2" d="M156 482h224M363 488l17-6-17-6"/>
  <path fill="#fff" fill-rule="evenodd" d="M217 454v18h90v-18h-90z"/>
  <text style="line-height:125%;text-align:start" font-family="Arial" font-size="14.7" font-stretch="Normal" font-weight="400" letter-spacing="0" transform="translate(217 468)" word-spacing="0">
    <tspan x="0" y="0"><tspan dx="0" dy="0">DefaultEngine</tspan></tspan>
  </text>
  <path fill="none" stroke="#000" stroke-linecap="round" stroke-linejoin="round" stroke-width="1.2" d="M240 700H80V514"/>
  <path fill="none" stroke="#000" stroke-linecap="round" stroke-linejoin="round" stroke-width="1.2" d="M85 531l-5-17-6 17"/>
  <path fill="#fff" fill-rule="evenodd" d="M53 710v17h85v-17H53z"/>
  <text style="line-height:125%;text-align:start" font-family="Arial" font-size="14.7" font-stretch="Normal" font-weight="400" letter-spacing="0" transform="translate(53 724)" word-spacing="0">
    <tspan x="0" y="0"><tspan dx="0" dy="0">DefaultScope</tspan></tspan>
  </text>
</svg>
